<svg width="39" height="60" viewBox="0 0 39 60" fill="none" xmlns="http://www.w3.org/2000/svg">
<path fill-rule="evenodd" clip-rule="evenodd" d="M0.818228 38.3807C1.07694 38.1306 1.38428 37.9322 1.72264 37.7968C2.06101 37.6614 2.42375 37.5917 2.79009 37.5917C3.15642 37.5917 3.51916 37.6614 3.85753 37.7968C4.19589 37.9322 4.50323 38.1306 4.76194 38.3807L19.5007 52.5976L34.2395 38.3807C34.7625 37.8764 35.4718 37.5931 36.2114 37.5931C36.951 37.5931 37.6603 37.8764 38.1832 38.3807C38.7062 38.885 39 39.5689 39 40.282C39 40.9951 38.7062 41.6791 38.1832 42.1833L21.4726 58.2961C21.2139 58.5462 20.9065 58.7446 20.5682 58.88C20.2298 59.0154 19.8671 59.0851 19.5007 59.0851C19.1344 59.0851 18.7717 59.0154 18.4333 58.88C18.0949 58.7446 17.7876 58.5462 17.5289 58.2961L0.818228 42.1833C0.558861 41.9339 0.353081 41.6375 0.212675 41.3113C0.0722701 40.985 0 40.6352 0 40.282C0 39.9288 0.0722701 39.579 0.212675 39.2528C0.353081 38.9265 0.558861 38.6301 0.818228 38.3807Z" fill="black"/>
<path fill-rule="evenodd" clip-rule="evenodd" d="M19.5009 0C20.2396 0 20.948 0.282934 21.4703 0.786559C21.9926 1.29018 22.286 1.97325 22.286 2.68548V51.0241C22.286 51.7363 21.9926 52.4194 21.4703 52.923C20.948 53.4267 20.2396 53.7096 19.5009 53.7096C18.7623 53.7096 18.0539 53.4267 17.5316 52.923C17.0093 52.4194 16.7158 51.7363 16.7158 51.0241V2.68548C16.7158 1.97325 17.0093 1.29018 17.5316 0.786559C18.0539 0.282934 18.7623 0 19.5009 0Z" fill="black"/>
</svg>
