<svg width="537" height="459" viewBox="0 0 537 459" fill="none" xmlns="http://www.w3.org/2000/svg">
<path d="M271.074 193.795L270.792 196.433L270.796 213.43C270.796 218.574 271.659 223.693 273.358 228.628L287.416 269.474C289.68 276.079 294.936 281.352 302.211 284.315C309.489 287.279 317.59 287.446 325.023 284.787C330.24 282.924 336.25 285.138 338.207 289.726C340.042 294.031 337.347 298.838 332.387 300.577C326.573 302.615 320.402 303.631 314.238 303.631C308.823 303.631 303.417 302.84 298.259 301.279L299.265 304.213C303.784 317.394 320.016 325.002 335.448 321.171C352.943 316.832 371.336 321.288 383.657 331.597C383.676 331.607 383.695 331.61 383.716 331.622C385.294 332.5 420.308 351.481 451.377 328.244C455.511 325.153 461.793 325.511 465.406 329.043C469.023 332.576 468.603 337.944 464.471 341.035C450.589 351.417 434.338 356.741 416.853 356.741C412.048 356.741 407.151 356.34 402.181 355.53C401.205 355.372 400.253 355.198 399.313 355.015C412.25 377.878 436.129 395.393 464.848 402.666L471.811 404.43C476.936 405.727 480.246 410.19 479 414.633C477.893 418.579 473.79 421.165 469.333 421.165C468.397 421.165 467.446 421.051 466.503 420.812L459.199 418.961C448.714 416.306 438.775 412.495 429.587 407.708C429.325 413.251 430.481 420.729 435.701 429.389C438.134 433.425 436.714 438.539 432.152 440.865C430.54 441.688 428.781 442.075 427.049 442.076C423.464 442.076 419.967 440.412 418.192 437.506C411.561 426.643 408.704 415.12 409.931 404.185C410.271 401.149 410.922 398.525 411.588 396.367C396.091 384.666 383.844 369.756 376.555 352.844C371.277 340.597 355.653 333.852 340.993 337.494C336.355 338.644 331.773 339.17 327.17 339.148C328.178 340.785 329.169 342.48 330.119 344.239C341.792 365.841 341.884 385.524 330.45 401.161C328.565 403.741 325.324 405.156 322.01 405.156C319.818 405.156 317.593 404.536 315.708 403.226C311.765 400.483 311.13 395.595 313.78 391.887C331.022 367.763 300.98 334.694 295.807 329.307C288.619 324.168 283.07 317.228 280.246 308.991L266.656 269.364L260.543 301.756C259.313 308.271 261.957 314.905 267.659 319.356C277.081 326.71 282.159 337.183 281.592 348.075C281.138 356.784 277.109 364.946 270.326 371.249C274.388 382.51 279.922 407.719 259 428.873C257.032 430.862 254.228 431.885 251.403 431.885C249.01 431.885 246.602 431.152 244.683 429.647C240.707 426.532 240.604 421.204 244.053 417.659C255.339 406.057 255.267 392.376 253.306 383.085L236.39 394.142C234.588 395.321 232.465 395.89 230.358 395.89C227.12 395.89 223.923 394.545 221.99 391.991C219.144 388.231 220.41 383.191 224.572 380.471L252.71 362.079C258.137 358.532 261.423 353.152 261.727 347.318C262.033 341.454 259.289 335.817 254.203 331.869C243.375 323.464 238.714 310.694 241.044 298.351L244.552 279.763C227.75 302.997 202.789 321.32 172.739 331.989C168.665 339.952 158.817 365.952 184.531 395.395C187.677 398.996 187.185 404.196 183.187 407.113C181.297 408.493 179.002 409.156 176.73 409.156C173.706 409.156 170.721 407.984 168.768 405.757C146.9 380.835 145.64 357.504 148.859 341.656C117.941 357.357 95.3966 383.19 86.9188 413.622L81.0646 434.637C79.9768 438.541 75.8993 441.168 71.4008 441.168C70.6381 441.168 69.8638 441.093 69.0895 440.935C63.7464 439.849 60.4479 435.266 61.7205 430.701L67.5748 409.686C70.8966 397.761 76.1005 386.451 82.9232 376.007C78.6773 376.888 74.1027 378.002 69.4825 379.413C47.6903 386.067 35.0696 395.822 31.9688 408.411C30.9827 412.413 26.8515 415.16 22.25 415.16C21.5716 415.16 20.8814 415.1 20.1913 414.976C14.819 414.009 11.379 409.501 12.5113 404.909C21.9377 366.639 81.6096 358.009 98.6904 356.313C115.273 339.169 136.908 325.641 161.916 317.391C175.638 312.864 188.202 306.521 199.241 298.705C191.683 300.211 184.144 300.968 176.688 300.968C158.702 300.968 141.18 296.609 124.913 287.975C120.399 285.578 118.627 280.533 121.18 276.55C123.949 272.226 130.36 270.841 135.176 273.415C167.423 290.641 197.907 283.137 215.353 275.73C224.251 271.954 231.125 265.505 234.845 257.63C239.078 248.671 244.35 236.614 247.673 228.912C249.812 223.954 250.908 218.715 250.908 213.43V196.434V193.797C250.908 162.435 237.101 132.886 211.952 110.219C208.047 110.554 204.146 110.742 200.262 110.742C176.407 110.742 153.19 104.441 133.362 92.3795C108.161 77.049 91.4525 54.2481 86.3153 28.1759C85.8767 25.9544 86.4896 23.674 88.0195 21.8374C89.5483 20.0018 91.8677 18.7601 94.4679 18.3851C157.437 9.32117 217.29 45.731 227.895 99.5509C227.922 99.6909 254.047 129.623 261.282 146.828C268.892 129.585 280.538 113.698 295.78 100.075C300.303 80.4712 313.187 63.363 332.311 51.7287C352.123 39.6774 376.231 34.9324 400.212 38.3667C401.432 38.5416 402.907 38.8785 403.967 39.4224C407.648 41.313 409.11 44.8082 408.446 48.1705C400.959 86.1649 362.277 113.138 318.624 113.138C315.5 113.138 312.351 112.983 309.187 112.701C285.112 134.647 271.511 163.108 270.79 193.291L271.067 193.29C271.067 193.459 271.074 193.627 271.074 193.795Z" fill="#FAFAFA"/>
</svg>
