<svg width="20" height="15" viewBox="0 0 20 15" fill="none" xmlns="http://www.w3.org/2000/svg">
<path fill-rule="evenodd" clip-rule="evenodd" d="M0.769231 0C0.565218 0 0.369561 0.0877975 0.225302 0.244078C0.0810437 0.400358 0 0.61232 0 0.833333C0 1.05435 0.0810437 1.26631 0.225302 1.42259C0.369561 1.57887 0.565218 1.66667 0.769231 1.66667H19.2308C19.4348 1.66667 19.6304 1.57887 19.7747 1.42259C19.919 1.26631 20 1.05435 20 0.833333C20 0.61232 19.919 0.400358 19.7747 0.244078C19.6304 0.0877975 19.4348 0 19.2308 0H0.769231ZM0 7.5C0 7.27899 0.0810437 7.06702 0.225302 6.91074C0.369561 6.75446 0.565218 6.66667 0.769231 6.66667H19.2308C19.4348 6.66667 19.6304 6.75446 19.7747 6.91074C19.919 7.06702 20 7.27899 20 7.5C20 7.72101 19.919 7.93297 19.7747 8.08926C19.6304 8.24554 19.4348 8.33333 19.2308 8.33333H0.769231C0.565218 8.33333 0.369561 8.24554 0.225302 8.08926C0.0810437 7.93297 0 7.72101 0 7.5V7.5ZM0 14.1667C0 13.9457 0.0810437 13.7337 0.225302 13.5774C0.369561 13.4211 0.565218 13.3333 0.769231 13.3333H19.2308C19.4348 13.3333 19.6304 13.4211 19.7747 13.5774C19.919 13.7337 20 13.9457 20 14.1667C20 14.3877 19.919 14.5996 19.7747 14.7559C19.6304 14.9122 19.4348 15 19.2308 15H0.769231C0.565218 15 0.369561 14.9122 0.225302 14.7559C0.0810437 14.5996 0 14.3877 0 14.1667V14.1667Z" fill="black"/>
</svg>
