<svg width="65" height="32" viewBox="0 0 65 32" fill="none" xmlns="http://www.w3.org/2000/svg">
<path d="M2 12.1328C2.63281 12.1328 3.00781 11.75 3.00781 11.0859V1.64062C3.00781 0.976562 2.63281 0.59375 2 0.59375C1.375 0.59375 0.992188 0.976562 0.992188 1.64062V11.0859C0.992188 11.75 1.375 12.1328 2 12.1328ZM6 12.1562C6.625 12.1562 7.00781 11.7656 7.00781 11.1094V7.75781H9.26562L11.2734 11.4297C11.5859 11.9844 11.8203 12.1562 12.2969 12.1562C12.875 12.1562 13.3125 11.7656 13.3125 11.2344C13.3125 11 13.2656 10.8281 13.0938 10.5391L11.3125 7.41406C12.6172 6.90625 13.3672 5.70312 13.3672 4.23438C13.3672 2.07812 11.9062 0.726562 9.46875 0.726562H6C5.375 0.726562 4.99219 1.11719 4.99219 1.77344V11.1094C4.99219 11.7656 5.375 12.1562 6 12.1562ZM7.00781 6.21094V2.35938H9.24219C10.5156 2.35938 11.3047 3.09375 11.3047 4.28125C11.3047 5.5 10.5625 6.21094 9.28125 6.21094H7.00781ZM16 12H21.4922C22.0469 12 22.4141 11.6719 22.4141 11.1484C22.4141 10.625 22.0469 10.2969 21.4922 10.2969H17.0078V7.07812H21.2578C21.7812 7.07812 22.125 6.76562 22.125 6.27344C22.125 5.78125 21.7734 5.47656 21.2578 5.47656H17.0078V2.42969H21.4922C22.0469 2.42969 22.4141 2.10156 22.4141 1.57812C22.4141 1.05469 22.0469 0.726562 21.4922 0.726562H16C15.375 0.726562 14.9922 1.11719 14.9922 1.77344V10.9531C14.9922 11.6094 15.375 12 16 12ZM25.0156 12.1328C25.6172 12.1328 25.9844 11.7578 25.9844 11.1172V4.09375H26.0547L31.3203 11.5312C31.6406 11.9844 31.9062 12.1328 32.3672 12.1328C33.0234 12.1328 33.3906 11.7656 33.3906 11.125V1.60938C33.3906 0.96875 33.0312 0.59375 32.4219 0.59375C31.8203 0.59375 31.4531 0.96875 31.4531 1.60938V8.625H31.3828L26.1328 1.19531C25.8047 0.75 25.5312 0.59375 25.0859 0.59375C24.4375 0.59375 24.0391 0.984375 24.0391 1.63281V11.1172C24.0391 11.7578 24.4062 12.1328 25.0156 12.1328ZM36.3906 12H41.8828C42.4375 12 42.8047 11.6719 42.8047 11.1484C42.8047 10.625 42.4375 10.2969 41.8828 10.2969H37.3984V7.07812H41.6484C42.1719 7.07812 42.5156 6.76562 42.5156 6.27344C42.5156 5.78125 42.1641 5.47656 41.6484 5.47656H37.3984V2.42969H41.8828C42.4375 2.42969 42.8047 2.10156 42.8047 1.57812C42.8047 1.05469 42.4375 0.726562 41.8828 0.726562H36.3906C35.7656 0.726562 35.3828 1.11719 35.3828 1.77344V10.9531C35.3828 11.6094 35.7656 12 36.3906 12ZM5.94531 31.1875C9.0625 31.1875 10.8594 29.3047 10.8594 26.375V26.1406C10.8594 25.4844 10.4844 25.0938 9.85938 25.0938H6.89062C6.39062 25.0938 6.04688 25.3828 6.04688 25.8594C6.04688 26.3359 6.39062 26.6328 6.89062 26.6328H8.89062L8.88281 26.8203C8.85156 28.3984 7.67188 29.4766 5.96875 29.4766C3.9375 29.4766 2.67188 27.8906 2.67188 25.2969C2.67188 22.7578 3.88281 21.25 5.91406 21.25C7.14062 21.25 8.05469 21.8125 8.61719 22.9297C8.86719 23.3828 9.17188 23.5781 9.60938 23.5781C10.1484 23.5781 10.5 23.2266 10.5 22.6953C10.5 22.4922 10.4688 22.2891 10.3516 22.0234C9.72656 20.5703 8.03125 19.5391 5.90625 19.5391C2.64844 19.5391 0.609375 21.7422 0.609375 25.3203C0.609375 28.9531 2.65625 31.1875 5.94531 31.1875ZM13.6719 31.0859C14.2969 31.0859 14.7891 30.5938 14.7891 29.9609C14.7891 29.3359 14.2969 28.8359 13.6719 28.8359C13.0391 28.8359 12.5469 29.3359 12.5469 29.9609C12.5469 30.5938 13.0391 31.0859 13.6719 31.0859ZM24.0859 31.1875C27.2031 31.1875 29 29.3047 29 26.375V26.1406C29 25.4844 28.625 25.0938 28 25.0938H25.0312C24.5312 25.0938 24.1875 25.3828 24.1875 25.8594C24.1875 26.3359 24.5312 26.6328 25.0312 26.6328H27.0312L27.0234 26.8203C26.9922 28.3984 25.8125 29.4766 24.1094 29.4766C22.0781 29.4766 20.8125 27.8906 20.8125 25.2969C20.8125 22.7578 22.0234 21.25 24.0547 21.25C25.2812 21.25 26.1953 21.8125 26.7578 22.9297C27.0078 23.3828 27.3125 23.5781 27.75 23.5781C28.2891 23.5781 28.6406 23.2266 28.6406 22.6953C28.6406 22.4922 28.6094 22.2891 28.4922 22.0234C27.8672 20.5703 26.1719 19.5391 24.0469 19.5391C20.7891 19.5391 18.75 21.7422 18.75 25.3203C18.75 28.9531 20.7969 31.1875 24.0859 31.1875ZM30.9375 31.1328C31.4609 31.1328 31.7578 30.875 31.9453 30.2656L32.6875 28.125H36.8984L37.6406 30.2812C37.8203 30.8828 38.125 31.1328 38.6719 31.1328C39.2578 31.1328 39.6797 30.75 39.6797 30.2031C39.6797 30.0234 39.6406 29.8438 39.5469 29.5859L36.2656 20.6797C35.9844 19.9219 35.5312 19.5938 34.7891 19.5938C34.0547 19.5938 33.6016 19.9375 33.3281 20.6875L30.0547 29.5859C29.9609 29.8281 29.9219 30.0469 29.9219 30.2031C29.9219 30.7734 30.3203 31.1328 30.9375 31.1328ZM33.1641 26.5312L34.75 21.7188H34.8047L36.4062 26.5312H33.1641ZM42.1562 31.1562C42.7812 31.1562 43.1641 30.7656 43.1641 30.1094V26.7578H45.4219L47.4297 30.4297C47.7422 30.9844 47.9766 31.1562 48.4531 31.1562C49.0312 31.1562 49.4688 30.7656 49.4688 30.2344C49.4688 30 49.4219 29.8281 49.25 29.5391L47.4688 26.4141C48.7734 25.9062 49.5234 24.7031 49.5234 23.2344C49.5234 21.0781 48.0625 19.7266 45.625 19.7266H42.1562C41.5312 19.7266 41.1484 20.1172 41.1484 20.7734V30.1094C41.1484 30.7656 41.5312 31.1562 42.1562 31.1562ZM43.1641 25.2109V21.3594H45.3984C46.6719 21.3594 47.4609 22.0938 47.4609 23.2812C47.4609 24.5 46.7188 25.2109 45.4375 25.2109H43.1641ZM52.4766 19.0469C52.7188 19.0469 52.8438 18.9766 53.0859 18.7109L54.2344 17.4219C54.4062 17.2266 54.4844 17.0547 54.4844 16.875C54.4844 16.4766 54.1875 16.2031 53.7656 16.2031C53.4609 16.2031 53.2891 16.3047 53.0547 16.6172L52 18.0234C51.8828 18.1797 51.8281 18.3203 51.8281 18.4688C51.8281 18.7969 52.1094 19.0469 52.4766 19.0469ZM52.1562 31.1328C52.7891 31.1328 53.1641 30.75 53.1641 30.0859V20.6406C53.1641 19.9766 52.7891 19.5938 52.1562 19.5938C51.5312 19.5938 51.1484 19.9766 51.1484 20.6406V30.0859C51.1484 30.75 51.5312 31.1328 52.1562 31.1328ZM56.125 31.1328C56.7266 31.1328 57.0938 30.7578 57.0938 30.1172V23.0938H57.1641L62.4297 30.5312C62.75 30.9844 63.0156 31.1328 63.4766 31.1328C64.1328 31.1328 64.5 30.7656 64.5 30.125V20.6094C64.5 19.9688 64.1406 19.5938 63.5312 19.5938C62.9297 19.5938 62.5625 19.9688 62.5625 20.6094V27.625H62.4922L57.2422 20.1953C56.9141 19.75 56.6406 19.5938 56.1953 19.5938C55.5469 19.5938 55.1484 19.9844 55.1484 20.6328V30.1172C55.1484 30.7578 55.5156 31.1328 56.125 31.1328Z" fill="#4B5320"/>
</svg>
