<svg width="97" height="48" viewBox="0 0 97 48" fill="none" xmlns="http://www.w3.org/2000/svg">
<path d="M3 18.1992C3.94922 18.1992 4.51172 17.625 4.51172 16.6289V2.46094C4.51172 1.46484 3.94922 0.890625 3 0.890625C2.0625 0.890625 1.48828 1.46484 1.48828 2.46094V16.6289C1.48828 17.625 2.0625 18.1992 3 18.1992ZM9 18.2344C9.9375 18.2344 10.5117 17.6484 10.5117 16.6641V11.6367H13.8984L16.9102 17.1445C17.3789 17.9766 17.7305 18.2344 18.4453 18.2344C19.3125 18.2344 19.9688 17.6484 19.9688 16.8516C19.9688 16.5 19.8984 16.2422 19.6406 15.8086L16.9688 11.1211C18.9258 10.3594 20.0508 8.55469 20.0508 6.35156C20.0508 3.11719 17.8594 1.08984 14.2031 1.08984H9C8.0625 1.08984 7.48828 1.67578 7.48828 2.66016V16.6641C7.48828 17.6484 8.0625 18.2344 9 18.2344ZM10.5117 9.31641V3.53906H13.8633C15.7734 3.53906 16.957 4.64062 16.957 6.42188C16.957 8.25 15.8438 9.31641 13.9219 9.31641H10.5117ZM24 18H32.2383C33.0703 18 33.6211 17.5078 33.6211 16.7227C33.6211 15.9375 33.0703 15.4453 32.2383 15.4453H25.5117V10.6172H31.8867C32.6719 10.6172 33.1875 10.1484 33.1875 9.41016C33.1875 8.67188 32.6602 8.21484 31.8867 8.21484H25.5117V3.64453H32.2383C33.0703 3.64453 33.6211 3.15234 33.6211 2.36719C33.6211 1.58203 33.0703 1.08984 32.2383 1.08984H24C23.0625 1.08984 22.4883 1.67578 22.4883 2.66016V16.4297C22.4883 17.4141 23.0625 18 24 18ZM37.5234 18.1992C38.4258 18.1992 38.9766 17.6367 38.9766 16.6758V6.14062H39.082L46.9805 17.2969C47.4609 17.9766 47.8594 18.1992 48.5508 18.1992C49.5352 18.1992 50.0859 17.6484 50.0859 16.6875V2.41406C50.0859 1.45312 49.5469 0.890625 48.6328 0.890625C47.7305 0.890625 47.1797 1.45312 47.1797 2.41406V12.9375H47.0742L39.1992 1.79297C38.707 1.125 38.2969 0.890625 37.6289 0.890625C36.6562 0.890625 36.0586 1.47656 36.0586 2.44922V16.6758C36.0586 17.6367 36.6094 18.1992 37.5234 18.1992ZM54.5859 18H62.8242C63.6562 18 64.207 17.5078 64.207 16.7227C64.207 15.9375 63.6562 15.4453 62.8242 15.4453H56.0977V10.6172H62.4727C63.2578 10.6172 63.7734 10.1484 63.7734 9.41016C63.7734 8.67188 63.2461 8.21484 62.4727 8.21484H56.0977V3.64453H62.8242C63.6562 3.64453 64.207 3.15234 64.207 2.36719C64.207 1.58203 63.6562 1.08984 62.8242 1.08984H54.5859C53.6484 1.08984 53.0742 1.67578 53.0742 2.66016V16.4297C53.0742 17.4141 53.6484 18 54.5859 18ZM8.91797 47.2812C13.5938 47.2812 16.2891 44.457 16.2891 40.0625V39.7109C16.2891 38.7266 15.7266 38.1406 14.7891 38.1406H10.3359C9.58594 38.1406 9.07031 38.5742 9.07031 39.2891C9.07031 40.0039 9.58594 40.4492 10.3359 40.4492H13.3359L13.3242 40.7305C13.2773 43.0977 11.5078 44.7148 8.95312 44.7148C5.90625 44.7148 4.00781 42.3359 4.00781 38.4453C4.00781 34.6367 5.82422 32.375 8.87109 32.375C10.7109 32.375 12.082 33.2188 12.9258 34.8945C13.3008 35.5742 13.7578 35.8672 14.4141 35.8672C15.2227 35.8672 15.75 35.3398 15.75 34.543C15.75 34.2383 15.7031 33.9336 15.5273 33.5352C14.5898 31.3555 12.0469 29.8086 8.85938 29.8086C3.97266 29.8086 0.914062 33.1133 0.914062 38.4805C0.914062 43.9297 3.98438 47.2812 8.91797 47.2812ZM20.5078 47.1289C21.4453 47.1289 22.1836 46.3906 22.1836 45.4414C22.1836 44.5039 21.4453 43.7539 20.5078 43.7539C19.5586 43.7539 18.8203 44.5039 18.8203 45.4414C18.8203 46.3906 19.5586 47.1289 20.5078 47.1289ZM36.1289 47.2812C40.8047 47.2812 43.5 44.457 43.5 40.0625V39.7109C43.5 38.7266 42.9375 38.1406 42 38.1406H37.5469C36.7969 38.1406 36.2812 38.5742 36.2812 39.2891C36.2812 40.0039 36.7969 40.4492 37.5469 40.4492H40.5469L40.5352 40.7305C40.4883 43.0977 38.7188 44.7148 36.1641 44.7148C33.1172 44.7148 31.2188 42.3359 31.2188 38.4453C31.2188 34.6367 33.0352 32.375 36.082 32.375C37.9219 32.375 39.293 33.2188 40.1367 34.8945C40.5117 35.5742 40.9688 35.8672 41.625 35.8672C42.4336 35.8672 42.9609 35.3398 42.9609 34.543C42.9609 34.2383 42.9141 33.9336 42.7383 33.5352C41.8008 31.3555 39.2578 29.8086 36.0703 29.8086C31.1836 29.8086 28.125 33.1133 28.125 38.4805C28.125 43.9297 31.1953 47.2812 36.1289 47.2812ZM46.4062 47.1992C47.1914 47.1992 47.6367 46.8125 47.918 45.8984L49.0312 42.6875H55.3477L56.4609 45.9219C56.7305 46.8242 57.1875 47.1992 58.0078 47.1992C58.8867 47.1992 59.5195 46.625 59.5195 45.8047C59.5195 45.5352 59.4609 45.2656 59.3203 44.8789L54.3984 31.5195C53.9766 30.3828 53.2969 29.8906 52.1836 29.8906C51.082 29.8906 50.4023 30.4062 49.9922 31.5312L45.082 44.8789C44.9414 45.2422 44.8828 45.5703 44.8828 45.8047C44.8828 46.6602 45.4805 47.1992 46.4062 47.1992ZM49.7461 40.2969L52.125 33.0781H52.207L54.6094 40.2969H49.7461ZM63.2344 47.2344C64.1719 47.2344 64.7461 46.6484 64.7461 45.6641V40.6367H68.1328L71.1445 46.1445C71.6133 46.9766 71.9648 47.2344 72.6797 47.2344C73.5469 47.2344 74.2031 46.6484 74.2031 45.8516C74.2031 45.5 74.1328 45.2422 73.875 44.8086L71.2031 40.1211C73.1602 39.3594 74.2852 37.5547 74.2852 35.3516C74.2852 32.1172 72.0938 30.0898 68.4375 30.0898H63.2344C62.2969 30.0898 61.7227 30.6758 61.7227 31.6602V45.6641C61.7227 46.6484 62.2969 47.2344 63.2344 47.2344ZM64.7461 38.3164V32.5391H68.0977C70.0078 32.5391 71.1914 33.6406 71.1914 35.4219C71.1914 37.25 70.0781 38.3164 68.1562 38.3164H64.7461ZM78.7148 29.0703C79.0781 29.0703 79.2656 28.9648 79.6289 28.5664L81.3516 26.6328C81.6094 26.3398 81.7266 26.082 81.7266 25.8125C81.7266 25.2148 81.2812 24.8047 80.6484 24.8047C80.1914 24.8047 79.9336 24.957 79.582 25.4258L78 27.5352C77.8242 27.7695 77.7422 27.9805 77.7422 28.2031C77.7422 28.6953 78.1641 29.0703 78.7148 29.0703ZM78.2344 47.1992C79.1836 47.1992 79.7461 46.625 79.7461 45.6289V31.4609C79.7461 30.4648 79.1836 29.8906 78.2344 29.8906C77.2969 29.8906 76.7227 30.4648 76.7227 31.4609V45.6289C76.7227 46.625 77.2969 47.1992 78.2344 47.1992ZM84.1875 47.1992C85.0898 47.1992 85.6406 46.6367 85.6406 45.6758V35.1406H85.7461L93.6445 46.2969C94.125 46.9766 94.5234 47.1992 95.2148 47.1992C96.1992 47.1992 96.75 46.6484 96.75 45.6875V31.4141C96.75 30.4531 96.2109 29.8906 95.2969 29.8906C94.3945 29.8906 93.8438 30.4531 93.8438 31.4141V41.9375H93.7383L85.8633 30.793C85.3711 30.125 84.9609 29.8906 84.293 29.8906C83.3203 29.8906 82.7227 30.4766 82.7227 31.4492V45.6758C82.7227 46.6367 83.2734 47.1992 84.1875 47.1992Z" fill="white"/>
</svg>
