<svg width="116" height="101" viewBox="0 0 116 101" fill="none" xmlns="http://www.w3.org/2000/svg">
<path fill-rule="evenodd" clip-rule="evenodd" d="M4 81.1429V19.4286C4 15.3367 5.6255 11.4123 8.51892 8.51892C11.4123 5.6255 15.3367 4 19.4286 4H96.5714C100.663 4 104.588 5.6255 107.481 8.51892C110.374 11.4123 112 15.3367 112 19.4286V81.1429C112 85.2348 110.374 89.1591 107.481 92.0525C104.588 94.9459 100.663 96.5714 96.5714 96.5714H19.4286C15.3367 96.5714 11.4123 94.9459 8.51892 92.0525C5.6255 89.1591 4 85.2348 4 81.1429Z" stroke="#4B5320" stroke-width="7.71429" stroke-linecap="round" stroke-linejoin="round"/>
<path d="M19.4287 31L58.0001 54.1429L96.5716 31" stroke="#4B5320" stroke-width="7.71429" stroke-linecap="round" stroke-linejoin="round"/>
</svg>
