<svg width="34" height="34" viewBox="0 0 34 34" fill="none" xmlns="http://www.w3.org/2000/svg">
<path d="M32.64 0H1.36C0.60775 0 0 0.60775 0 1.36V32.64C0 33.3923 0.60775 34 1.36 34H32.64C33.3923 34 34 33.3923 34 32.64V1.36C34 0.60775 33.3923 0 32.64 0ZM27.88 8.74225L26.146 10.404C25.993 10.5187 25.9207 10.7058 25.9505 10.8885V23.1158C25.9207 23.3028 25.993 23.4897 26.146 23.6003L27.846 25.262V25.6318H19.312V25.279L21.0673 23.5748C21.2415 23.4005 21.2415 23.3495 21.2415 23.0903V13.1962L16.354 25.5892H15.6952L10.0087 13.1962V21.505C9.95775 21.8535 10.081 22.2063 10.3275 22.457L12.614 25.2238V25.5935H6.12V25.2238L8.4065 22.457C8.52697 22.3326 8.61662 22.1816 8.66829 22.0163C8.71995 21.851 8.73218 21.6759 8.704 21.505V11.9C8.73375 11.6322 8.63175 11.373 8.42775 11.1902L6.39625 8.74225V8.3725H12.7075L17.578 19.0613L21.8663 8.381H27.88V8.74225Z" fill="white"/>
</svg>
