<svg width="104" height="104" viewBox="0 0 104 104" fill="none" xmlns="http://www.w3.org/2000/svg">
<path fill-rule="evenodd" clip-rule="evenodd" d="M23.7478 8.63802C23.3639 8.14549 22.8796 7.74015 22.3272 7.44883C21.7748 7.15752 21.1668 6.98688 20.5435 6.94821C19.9202 6.90953 19.2958 7.00372 18.7116 7.22452C18.1274 7.44532 17.5968 7.78771 17.1549 8.229L10.4303 14.9536C7.28988 18.0941 6.13214 22.5448 7.51172 26.4478C13.2015 42.6175 22.4589 57.2987 34.5973 69.4021C46.7009 81.5403 61.3819 90.7977 77.5516 96.4877C81.4546 97.8603 85.9053 96.7095 89.0458 93.569L95.7704 86.8444C96.2113 86.4021 96.5532 85.8711 96.7734 85.2866C96.9936 84.7022 97.0872 84.0776 97.0479 83.4543C97.0085 82.831 96.8372 82.2231 96.5453 81.671C96.2533 81.1188 95.8474 80.635 95.3544 80.2516L80.3662 68.591C79.839 68.1812 79.2256 67.8965 78.5723 67.7584C77.919 67.6203 77.2428 67.6324 76.5949 67.7937L62.3692 71.3501C60.4689 71.8259 58.4778 71.8014 56.5899 71.279C54.7019 70.7566 52.9814 69.7541 51.596 68.3691L35.6372 52.4034C34.2522 51.018 33.2497 49.2975 32.7273 47.4095C32.2049 45.5215 32.1804 43.5304 32.6562 41.6302L36.2126 27.4045C36.374 26.7566 36.386 26.0804 36.2479 25.4271C36.1098 24.7738 35.8251 24.1604 35.4153 23.6332L23.7478 8.63802ZM12.2536 3.3346C13.391 2.19792 14.7571 1.31609 16.2613 0.747621C17.7655 0.179153 19.3734 -0.0629592 20.9783 0.0373469C22.5832 0.137653 24.1484 0.578084 25.5701 1.32942C26.9918 2.08076 28.2375 3.12582 29.2246 4.39529L40.8782 19.3835C43.0204 22.1288 43.776 25.713 42.9303 29.0891L39.3739 43.3217C39.1889 44.0602 39.1983 44.834 39.4012 45.5678C39.6041 46.3016 39.9935 46.9704 40.5316 47.509L56.5042 63.4678C57.0429 64.0059 57.7116 64.3953 58.4454 64.5982C59.1792 64.8011 59.953 64.8105 60.6915 64.6255L74.9172 61.0691C76.5857 60.6524 78.3272 60.6206 80.0099 60.9761C81.6925 61.3316 83.2723 62.0651 84.6297 63.1212L99.618 74.7748C105.005 78.9621 105.504 86.9276 100.679 91.7458L93.954 98.4704C89.1498 103.275 81.9607 105.389 75.2569 103.032C58.1085 96.9961 42.5389 87.1772 29.7029 74.3034C16.8266 61.4681 7.00527 45.8984 0.967366 28.7494C-1.38971 22.0456 0.724726 14.8565 5.529 10.0453L12.2536 3.32767V3.3346Z" fill="#4B5320"/>
</svg>
